<?xml version="1.0" standalone="no"?>
<!DOCTYPE svg PUBLIC "-//W3C//DTD SVG 20010904//EN"
 "http://www.w3.org/TR/2001/REC-SVG-20010904/DTD/svg10.dtd">
<svg version="1.0" xmlns="http://www.w3.org/2000/svg"
 width="400.000000pt" height="400.000000pt" viewBox="0 0 400.000000 400.000000"
 preserveAspectRatio="xMidYMid meet">

<g transform="translate(0.000000,400.000000) scale(0.100000,-0.100000)"
fill="#000000" stroke="none">
<path d="M2380 3470 c8 -5 20 -10 25 -10 6 0 3 5 -5 10 -8 5 -19 10 -25 10 -5
0 -3 -5 5 -10z"/>
<path d="M1369 3363 c-13 -16 -12 -17 4 -4 9 7 17 15 17 17 0 8 -8 3 -21 -13z"/>
<path d="M2570 3357 c0 -2 15 -16 33 -33 l32 -29 -29 33 c-28 30 -36 37 -36
29z"/>
<path d="M1280 3283 l-55 -58 58 55 c53 50 62 60 54 60 -1 0 -27 -26 -57 -57z"/>
<path d="M2650 3277 c0 -2 15 -16 33 -33 l32 -29 -29 33 c-28 30 -36 37 -36
29z"/>
<path d="M1895 3078 c-22 -13 -50 -41 -62 -63 -21 -37 -23 -52 -23 -210 0
-158 2 -173 23 -209 29 -52 77 -80 139 -80 54 0 89 21 126 74 21 31 22 43 22
215 0 172 -1 184 -22 215 -52 76 -132 99 -203 58z m125 -43 c52 -27 60 -57 60
-230 0 -167 -7 -198 -52 -229 -47 -33 -131 -11 -160 42 -18 35 -18 339 0 374
29 53 96 72 152 43z"/>
<path d="M1700 2652 c0 -36 37 -120 68 -154 36 -40 120 -88 155 -88 9 0 17 -4
18 -10 0 -5 1 -31 1 -57 l1 -48 -52 -3 c-47 -3 -51 -5 -51 -28 l0 -24 130 0
130 0 0 25 c0 24 -3 25 -55 25 l-55 0 0 58 0 58 45 12 c87 23 145 75 178 160
24 60 22 84 -5 80 -17 -2 -24 -12 -31 -45 -18 -95 -133 -173 -233 -159 -95 13
-177 85 -190 168 -6 32 -11 38 -30 38 -13 0 -24 -4 -24 -8z"/>
<path d="M2709 2123 c-13 -16 -12 -17 4 -4 9 7 17 15 17 17 0 8 -8 3 -21 -13z"/>
<path d="M1210 2126 c0 -2 8 -10 18 -17 15 -13 16 -12 3 4 -13 16 -21 21 -21
13z"/>
<path d="M2640 2045 c-24 -25 -42 -45 -39 -45 3 0 25 20 49 45 24 25 42 45 39
45 -3 0 -25 -20 -49 -45z"/>
<path d="M1340 1996 c0 -2 8 -10 18 -17 15 -13 16 -12 3 4 -13 16 -21 21 -21
13z"/>
<path d="M2559 1973 c-13 -16 -12 -17 4 -4 9 7 17 15 17 17 0 8 -8 3 -21 -13z"/>
<path d="M2188 1793 c7 -3 16 -2 19 1 4 3 -2 6 -13 5 -11 0 -14 -3 -6 -6z"/>
<path d="M1366 1297 c-57 -32 -89 -96 -83 -165 4 -59 26 -95 77 -129 129 -88
302 34 261 185 -30 113 -155 166 -255 109z"/>
</g>
</svg>
